<mxfile host="app.diagrams.net" modified="2023-03-15T03:36:45.523Z" agent="5.0 (Windows NT 10.0; Win64; x64) AppleWebKit/537.36 (KHTML, like Gecko) Chrome/111.0.0.0 Safari/537.36" etag="UrES9d7AYjHfo2jFqCZE" version="21.0.6" type="github">
  <diagram name="第 1 页" id="VC1_8_KPfjSJf_Yyecvs">
    <mxGraphModel dx="683" dy="394" grid="1" gridSize="10" guides="1" tooltips="1" connect="1" arrows="1" fold="1" page="1" pageScale="1" pageWidth="827" pageHeight="1169" math="0" shadow="0">
      <root>
        <mxCell id="0" />
        <mxCell id="1" parent="0" />
        <mxCell id="z2gJ4b-_QaFfIgCPyHpS-1" value="" style="rounded=0;whiteSpace=wrap;html=1;dashed=1;" vertex="1" parent="1">
          <mxGeometry x="389" y="120" width="110" height="160" as="geometry" />
        </mxCell>
        <mxCell id="z2gJ4b-_QaFfIgCPyHpS-5" value="∑&lt;span style=&quot;font-size: 10px;&quot;&gt;&lt;sub&gt;1&lt;/sub&gt;&lt;/span&gt;" style="ellipse;whiteSpace=wrap;html=1;aspect=fixed;" vertex="1" parent="1">
          <mxGeometry x="414" y="132.5" width="60" height="60" as="geometry" />
        </mxCell>
        <mxCell id="z2gJ4b-_QaFfIgCPyHpS-6" value="∑&lt;span style=&quot;font-size: 8.33333px;&quot;&gt;&lt;sub&gt;2&lt;/sub&gt;&lt;/span&gt;" style="ellipse;whiteSpace=wrap;html=1;aspect=fixed;" vertex="1" parent="1">
          <mxGeometry x="414" y="210" width="60" height="60" as="geometry" />
        </mxCell>
        <mxCell id="z2gJ4b-_QaFfIgCPyHpS-9" value="" style="endArrow=classic;html=1;rounded=0;exitX=1;exitY=0.5;exitDx=0;exitDy=0;entryX=0;entryY=0.5;entryDx=0;entryDy=0;" edge="1" parent="1" target="z2gJ4b-_QaFfIgCPyHpS-5">
          <mxGeometry width="50" height="50" relative="1" as="geometry">
            <mxPoint x="360" y="162.5" as="sourcePoint" />
            <mxPoint x="440" y="140" as="targetPoint" />
          </mxGeometry>
        </mxCell>
        <mxCell id="z2gJ4b-_QaFfIgCPyHpS-10" value="" style="endArrow=classic;html=1;rounded=0;exitX=1;exitY=0.5;exitDx=0;exitDy=0;entryX=0;entryY=0.5;entryDx=0;entryDy=0;" edge="1" parent="1" target="z2gJ4b-_QaFfIgCPyHpS-6">
          <mxGeometry width="50" height="50" relative="1" as="geometry">
            <mxPoint x="360" y="240" as="sourcePoint" />
            <mxPoint x="424" y="239.76" as="targetPoint" />
          </mxGeometry>
        </mxCell>
        <mxCell id="z2gJ4b-_QaFfIgCPyHpS-12" value="" style="endArrow=classic;html=1;rounded=0;exitX=1;exitY=0.5;exitDx=0;exitDy=0;" edge="1" parent="1" source="z2gJ4b-_QaFfIgCPyHpS-5">
          <mxGeometry width="50" height="50" relative="1" as="geometry">
            <mxPoint x="490" y="162.26" as="sourcePoint" />
            <mxPoint x="540" y="162" as="targetPoint" />
          </mxGeometry>
        </mxCell>
        <mxCell id="z2gJ4b-_QaFfIgCPyHpS-13" value="" style="endArrow=classic;html=1;rounded=0;exitX=1;exitY=0.5;exitDx=0;exitDy=0;" edge="1" parent="1" source="z2gJ4b-_QaFfIgCPyHpS-6">
          <mxGeometry width="50" height="50" relative="1" as="geometry">
            <mxPoint x="480" y="240.5" as="sourcePoint" />
            <mxPoint x="540" y="240.5" as="targetPoint" />
          </mxGeometry>
        </mxCell>
        <mxCell id="z2gJ4b-_QaFfIgCPyHpS-14" value="O&lt;sub&gt;1&lt;/sub&gt;" style="text;strokeColor=none;align=center;fillColor=none;html=1;verticalAlign=middle;whiteSpace=wrap;rounded=0;" vertex="1" parent="1">
          <mxGeometry x="490" y="132.5" width="60" height="30" as="geometry" />
        </mxCell>
        <mxCell id="z2gJ4b-_QaFfIgCPyHpS-15" value="O&lt;span style=&quot;font-size: 10px;&quot;&gt;&lt;sub&gt;2&lt;/sub&gt;&lt;/span&gt;" style="text;strokeColor=none;align=center;fillColor=none;html=1;verticalAlign=middle;whiteSpace=wrap;rounded=0;" vertex="1" parent="1">
          <mxGeometry x="490" y="210" width="60" height="30" as="geometry" />
        </mxCell>
        <mxCell id="z2gJ4b-_QaFfIgCPyHpS-16" value="∑&lt;span style=&quot;font-size: 10px;&quot;&gt;&lt;sub&gt;3&lt;/sub&gt;&lt;/span&gt;" style="text;strokeColor=none;align=center;fillColor=none;html=1;verticalAlign=middle;whiteSpace=wrap;rounded=0;" vertex="1" parent="1">
          <mxGeometry x="372" y="117" width="60" height="30" as="geometry" />
        </mxCell>
        <mxCell id="z2gJ4b-_QaFfIgCPyHpS-17" value="&lt;span style=&quot;font-size: 10px;&quot;&gt;I&lt;sub&gt;1&lt;/sub&gt;&lt;/span&gt;" style="text;strokeColor=none;align=center;fillColor=none;html=1;verticalAlign=middle;whiteSpace=wrap;rounded=0;" vertex="1" parent="1">
          <mxGeometry x="340" y="132.5" width="60" height="30" as="geometry" />
        </mxCell>
        <mxCell id="z2gJ4b-_QaFfIgCPyHpS-18" value="&lt;span style=&quot;font-size: 10px;&quot;&gt;I&lt;sub&gt;2&lt;/sub&gt;&lt;/span&gt;" style="text;strokeColor=none;align=center;fillColor=none;html=1;verticalAlign=middle;whiteSpace=wrap;rounded=0;" vertex="1" parent="1">
          <mxGeometry x="340" y="210" width="60" height="30" as="geometry" />
        </mxCell>
      </root>
    </mxGraphModel>
  </diagram>
</mxfile>
